<?xml version="1.0" encoding="utf-8"?>
<!-- Generator: Adobe Illustrator 24.0.1, SVG Export Plug-In . SVG Version: 6.00 Build 0)  -->
<svg version="1.1" xmlns="http://www.w3.org/2000/svg" xmlns:xlink="http://www.w3.org/1999/xlink" x="0px" y="0px"
	 viewBox="0 0 64 64" style="enable-background:new 0 0 64 64;" xml:space="preserve">
<style type="text/css">
	.st0{fill:#F2F2F2;}
	.st1{fill:none;stroke:#B22BA4;stroke-width:6;stroke-miterlimit:10;}
	.st2{opacity:0.7;fill:none;stroke:#B22BA4;stroke-width:3;stroke-miterlimit:10;}
	.st3{fill:none;stroke:#FBB03B;stroke-width:6;stroke-miterlimit:10;}
	.st4{fill:none;stroke:#FBB03B;stroke-width:6;stroke-linecap:round;stroke-miterlimit:10;}
	.st5{opacity:0.4;fill:#FFFFFF;}
	.st6{fill:#FFFFFF;}
</style>
<g id="Calque_3">
	<path class="st0" d="M44,64H20C8.95,64,0,55.05,0,44V20C0,8.95,8.95,0,20,0h24c11.05,0,20,8.95,20,20v24C64,55.05,55.05,64,44,64z"
		/>
</g>
<g id="Calque_1">
	<g>
		<line class="st1" x1="12" y1="15.25" x2="52" y2="15.25"/>
		<line class="st2" x1="12" y1="25.88" x2="52" y2="25.88"/>
		<line class="st2" x1="12" y1="32.5" x2="52" y2="32.5"/>
		<line class="st2" x1="12" y1="39.13" x2="52" y2="39.13"/>
		<line class="st2" x1="12" y1="45.75" x2="52" y2="45.75"/>
		<line class="st2" x1="12" y1="52.75" x2="52" y2="52.75"/>
	</g>
</g>
<g id="Calque_2">
	<circle class="st3" cx="36" cy="27" r="19"/>
	<line class="st4" x1="23" y1="41" x2="4" y2="60"/>
	<line class="st4" x1="18" y1="42" x2="22" y2="46"/>
	<circle class="st5" cx="38" cy="29" r="11"/>
	<circle class="st6" cx="43.5" cy="32.5" r="4.5"/>
</g>
</svg>
